<svg width="205" height="50" viewBox="0 0 205 50" fill="none" xmlns="http://www.w3.org/2000/svg">
<path d="M5.632 32.104C4.69333 31.8907 3.81867 31.528 3.008 31.016C2.19733 30.504 1.51467 29.8 0.96 28.904L3.136 25.64C5.184 22.6107 7.01867 20.5627 8.64 19.496C10.304 18.4293 12.096 17.896 14.016 17.896C15.8507 17.896 17.408 18.4293 18.688 19.496C20.0107 20.52 20.9493 21.9493 21.504 23.784C22.4853 21.9067 23.7653 20.456 25.344 19.432C26.9653 18.408 28.7787 17.896 30.784 17.896C34.9653 17.896 37.8027 20.0507 39.296 24.36C40.32 22.312 41.7067 20.7333 43.456 19.624C45.2053 18.472 47.1893 17.896 49.408 17.896C52.4373 17.896 54.7627 18.856 56.384 20.776C58.0053 22.696 58.816 25.4053 58.816 28.904V37.8C58.816 40.1467 59.1147 41.832 59.712 42.856C60.352 43.88 61.3547 44.392 62.72 44.392C63.3173 44.392 63.7653 44.648 64.064 45.16C64.4053 45.672 64.576 46.3547 64.576 47.208C64.576 47.8907 64.384 48.5093 64 49.064C63.6587 49.6187 63.0827 49.896 62.272 49.896C56.0853 49.896 52.992 46.0987 52.992 38.504V30.312C52.992 28.0933 52.5867 26.3867 51.776 25.192C50.9653 23.9973 49.8133 23.4 48.32 23.4C46.0587 23.4 44.2667 24.7013 42.944 27.304C41.664 29.864 41.024 33.4267 41.024 37.992V49C40.5973 49.128 40.128 49.2347 39.616 49.32C39.104 49.4053 38.6133 49.448 38.144 49.448C37.12 49.448 36.1387 49.2987 35.2 49V31.208C35.2 28.6907 34.752 26.7707 33.856 25.448C33.0027 24.0827 31.7227 23.4 30.016 23.4C28.48 23.4 27.1147 24.0187 25.92 25.256C24.768 26.4507 23.8507 28.1573 23.168 30.376C22.528 32.552 22.208 35.0907 22.208 37.992V49C21.7813 49.128 21.312 49.2347 20.8 49.32C20.288 49.4053 19.7973 49.448 19.328 49.448C18.2613 49.448 17.3013 49.2987 16.448 49V28.584C16.448 25.128 15.4667 23.4 13.504 23.4C12.864 23.4 12.1387 23.6987 11.328 24.296C10.56 24.8507 9.51467 26.152 8.192 28.2L5.632 32.104ZM62.7485 44.392C63.6445 44.392 64.6045 44.1147 65.6285 43.56C66.6525 43.0053 67.6125 42.152 68.5085 41C69.5752 39.5493 70.3432 37.8853 70.8125 36.008C71.3245 34.1307 71.6445 32.232 71.7725 30.312V18.792C72.1565 18.664 72.6045 18.5573 73.1165 18.472C73.6285 18.3867 74.1618 18.344 74.7165 18.344C75.6978 18.344 76.6578 18.4933 77.5965 18.792V37.224C77.5965 39.4853 77.9378 41.256 78.6205 42.536C79.3458 43.7733 80.5405 44.392 82.2045 44.392C82.9298 44.392 83.4205 44.6907 83.6765 45.288C83.9325 45.8853 84.0605 46.5253 84.0605 47.208C84.0605 47.8907 83.8685 48.5093 83.4845 49.064C83.1432 49.6187 82.5672 49.896 81.7565 49.896C77.3192 49.896 74.4392 47.8053 73.1165 43.624C72.5192 44.6053 71.8792 45.4373 71.1965 46.12C70.0445 47.272 68.7005 48.1893 67.1645 48.872C65.6712 49.5547 64.0498 49.896 62.3005 49.896C61.7032 49.896 61.2552 49.5973 60.9565 49C60.6152 48.4453 60.4445 47.8267 60.4445 47.144C60.4445 46.4187 60.6365 45.7787 61.0205 45.224C61.3618 44.6693 61.9378 44.392 62.7485 44.392ZM74.7805 9.576C73.5858 9.576 72.5618 9.14933 71.7085 8.296C70.8552 7.44267 70.4285 6.41867 70.4285 5.224C70.4285 3.944 70.8338 2.89866 71.6445 2.088C72.4978 1.27733 73.5432 0.871998 74.7805 0.871998C76.0605 0.871998 77.1058 1.27733 77.9165 2.088C78.7272 2.89866 79.1325 3.944 79.1325 5.224C79.1325 6.46133 78.7058 7.50666 77.8525 8.36C77.0418 9.17066 76.0178 9.576 74.7805 9.576ZM81.738 49.896C81.1833 49.896 80.7353 49.64 80.394 49.128C80.0527 48.616 79.882 47.9547 79.882 47.144C79.882 45.3093 80.65 44.392 82.186 44.392C83.5513 44.392 84.7673 43.7093 85.834 42.344C86.9433 40.936 87.9033 38.6107 88.714 35.368L90.634 27.88C92.426 21.224 95.8393 17.896 100.874 17.896C102.709 17.896 104.266 18.4293 105.546 19.496C106.869 20.52 107.807 21.9493 108.362 23.784C109.343 21.9067 110.623 20.456 112.202 19.432C113.823 18.408 115.637 17.896 117.642 17.896C121.823 17.896 124.661 20.0507 126.154 24.36C127.178 22.312 128.565 20.7333 130.314 19.624C132.063 18.472 134.047 17.896 136.266 17.896C139.295 17.896 141.621 18.856 143.242 20.776C144.863 22.696 145.674 25.4053 145.674 28.904V37.8C145.674 40.1467 145.973 41.832 146.57 42.856C147.21 43.88 148.213 44.392 149.578 44.392C150.175 44.392 150.623 44.648 150.922 45.16C151.263 45.672 151.434 46.3547 151.434 47.208C151.434 47.8907 151.242 48.5093 150.858 49.064C150.517 49.6187 149.941 49.896 149.13 49.896C142.943 49.896 139.85 46.0987 139.85 38.504V30.312C139.85 28.0933 139.445 26.3867 138.634 25.192C137.823 23.9973 136.671 23.4 135.178 23.4C132.917 23.4 131.125 24.7013 129.802 27.304C128.522 29.864 127.882 33.4267 127.882 37.992V49C127.455 49.128 126.986 49.2347 126.474 49.32C125.962 49.4053 125.471 49.448 125.002 49.448C123.978 49.448 122.997 49.2987 122.058 49V31.208C122.058 28.6907 121.61 26.7707 120.714 25.448C119.861 24.0827 118.581 23.4 116.874 23.4C115.295 23.4 113.93 24.0187 112.778 25.256C111.626 26.4507 110.709 28.1573 110.026 30.376C109.386 32.552 109.066 35.0907 109.066 37.992V49C108.639 49.128 108.17 49.2347 107.658 49.32C107.146 49.4053 106.655 49.448 106.186 49.448C105.119 49.448 104.159 49.2987 103.306 49V28.584C103.306 25.128 102.325 23.4 100.362 23.4C99.466 23.4 98.698 23.8053 98.058 24.616C97.418 25.4267 96.8633 26.728 96.394 28.52L94.026 37.736C92.9167 41.96 91.3807 45.0533 89.418 47.016C87.4553 48.936 84.8953 49.896 81.738 49.896ZM149.561 44.392C150.457 44.392 151.417 44.1147 152.441 43.56C153.465 43.0053 154.425 42.152 155.321 41C156.388 39.5493 157.156 37.8853 157.625 36.008C158.137 34.1307 158.457 32.232 158.585 30.312V18.792C158.969 18.664 159.417 18.5573 159.929 18.472C160.441 18.3867 160.974 18.344 161.529 18.344C162.51 18.344 163.47 18.4933 164.409 18.792V37.224C164.409 39.4853 164.75 41.256 165.433 42.536C166.158 43.7733 167.353 44.392 169.017 44.392C169.742 44.392 170.233 44.6907 170.489 45.288C170.745 45.8853 170.873 46.5253 170.873 47.208C170.873 47.8907 170.681 48.5093 170.297 49.064C169.956 49.6187 169.38 49.896 168.569 49.896C164.132 49.896 161.252 47.8053 159.929 43.624C159.332 44.6053 158.692 45.4373 158.009 46.12C156.857 47.272 155.513 48.1893 153.977 48.872C152.484 49.5547 150.862 49.896 149.113 49.896C148.516 49.896 148.068 49.5973 147.769 49C147.428 48.4453 147.257 47.8267 147.257 47.144C147.257 46.4187 147.449 45.7787 147.833 45.224C148.174 44.6693 148.75 44.392 149.561 44.392ZM161.593 9.576C160.398 9.576 159.374 9.14933 158.521 8.296C157.668 7.44267 157.241 6.41867 157.241 5.224C157.241 3.944 157.646 2.89866 158.457 2.088C159.31 1.27733 160.356 0.871998 161.593 0.871998C162.873 0.871998 163.918 1.27733 164.729 2.088C165.54 2.89866 165.945 3.944 165.945 5.224C165.945 6.46133 165.518 7.50666 164.665 8.36C163.854 9.17066 162.83 9.576 161.593 9.576ZM168.998 44.392C170.364 44.392 171.708 43.7307 173.031 42.408C174.396 41.0853 175.548 39.3147 176.487 37.096C176.359 36.2 176.295 35.2613 176.295 34.28C176.295 31.1653 176.892 28.392 178.087 25.96C179.281 23.4853 180.924 21.5227 183.015 20.072C185.148 18.6213 187.601 17.896 190.375 17.896C192.423 17.896 194.3 18.3227 196.007 19.176C197.756 19.9867 199.1 21.096 200.039 22.504C199.783 23.4427 199.313 24.232 198.631 24.872C197.948 25.512 197.18 25.9813 196.327 26.28C195.004 24.36 193.063 23.4 190.503 23.4C188.028 23.4 186.023 24.3813 184.487 26.344C182.993 28.264 182.247 30.8027 182.247 33.96C182.247 37.2027 183.079 39.7627 184.743 41.64C186.407 43.4747 188.689 44.392 191.591 44.392C194.961 44.392 198.119 42.8347 201.062 39.72C202.385 40.488 203.623 41.6613 204.775 43.24C201.447 47.6773 196.967 49.896 191.335 49.896C188.604 49.896 186.172 49.3627 184.039 48.296C181.948 47.2293 180.263 45.736 178.983 43.816C176.337 47.8693 172.86 49.896 168.55 49.896C167.996 49.896 167.548 49.64 167.206 49.128C166.865 48.616 166.694 47.9547 166.694 47.144C166.694 45.3093 167.462 44.392 168.998 44.392Z" fill="white"/>
</svg>
